/* XPM */
static char *beep_mini_xpm[] = {
/* columns rows colors chars-per-pixel */
"48 48 34 1",
"  c #e36e45",
". c #e3734c",
"X c #e47650",
"o c #e57954",
"O c #e57d59",
"+ c #e6805d",
"@ c #e68462",
"# c #e78867",
"$ c #e88665",
"% c #e88866",
"& c #e88b6b",
"* c #e98f70",
"= c #e99274",
"- c #ea9678",
"; c #eb997c",
": c #eb9d82",
"> c #eca086",
", c #eda48b",
"< c #eea88f",
"1 c #eeaa93",
"2 c #efae98",
"3 c #efb099",
"4 c #f0b29c",
"5 c #f0b5a1",
"6 c #f4c6b6",
"7 c #f4c7b8",
"8 c #f4c9ba",
"9 c #f5cec1",
"0 c #f5d0c3",
"q c #f9e2da",
"w c #fae8e2",
"e c #fcf4f1",
"r c #fdf8f6",
"t c #fefefe",
/* pixels */
"<2211111<<,<,,<:<:::::::::-:------=-====&=&&&&&&",
"2555444222121<<<<<<<,,,:::::-::----=====&&&&&%%%",
"255544242221111<<,,,,::,:::::----=====&&=&&&&%#%",
"154444222212<<<<,<<:,:,:::::-:-----===&=&&&&%###",
"255444222211<<<,,,<:,::::::-:----======&&&&%%#$$",
"1544422222<<<<<<,,:,,:::::::----====&=&&&&&%%%$#",
"14442222111<<<,,,,:,::::-::------====&&&&&&%%$$$",
"24422222111<<<,,:,,:,::::--:---===&==&&&&&##%$+#",
"1442221111<<<,,,,,,::::::-:---=-====&&&&&##$$@@#",
"<24222211<1<<,,,:,:::::::-----====&&&=&&&##$@@@@",
"1422211111<<<,:,,::::::-------===&=&&&&&###$@@+$",
"14222111<<<,,,,,,:::-::-:---======&=&&&&#$$@@@@@",
"<2221111<<,,,,:,:5554:-::----====&&&&&%##$$$@++@",
"<221211<<<<,,,,,,ttte::---=====*=&&&&&%#$$$+@++@",
"<222111<<,,,:,,::tttr:-:----==**&=&&&##$$$+$+++@",
"<2111<<<<,,,,::::ttte:---====*=*&&&&&#$$$$++++++",
"<1111<<<<,,,,::::tttr;----===***&&&&##$$+$+++OO+",
"<211<<<<,,,:,,:::tttr;---=====**&&&#%%$$$+$+++++",
"<11<1<<,,,,,:::::tttr332222111&&&&##%%$$$+++O+O+",
",11<<<,,,,:,,:::;ttttttttttttt8*&&&#%$$+++++OOO+",
",11<<<,,::,::::::tttttttttttttt9&&#$#$@@$++O+OO+",
",<1<<<,,,,,:::::;ttttttttttttttt0###@@@+++++OOO+",
",<<<,,,,:,::::::;888888886766ettt-##$@@@++OOOOoO",
",<<<,,,,,:,:::;;;;;--======&&wttt-#@@@+@++OOOXOO",
",<<<,<,:::,:::;;;;--====**&&&wttt-@@@@+++OOOOoo+",
":<,,,:<:,>:::;;;----====**&&&wttt-@@@@++OOOOooXO",
",<<,,,:,:::;;;;;---=====**&&&wttt-@@++++OOOOoooO",
":<,,,:,::::::;-;---===&=**&&&wttt-@@@++OOOOoooXO",
":,,,,:::::::;;;---======&&&#&wttt=+++OO+OOoooXXo",
":,,,:,:,::;;;;---====&&&&&&&$wttt-+@+O+OOoooooXO",
":<,:,::::::;;-----====&=&&#&#wttt=++++OOOoooo..o",
":<,,:,::;:;;;----qqqqqqqqqqqqrttt*++O+O+oooooXXo",
"::<:::::::-:----=ttttttttttttttt2+++OOOOOoOXXX.O",
":<:::::::--:---==tttttttttttttt2++++OOOXooXXX..X",
"::<:::::::----===ttttttttttttt2++++OOooooXXXXX.O",
":<::::;:-------====&&&&&&#$$$+$++++OOOOooXXX...X",
":::::::-:---=-====&&&&&&##$@@@$+++OOOOOooXo....X",
":,::::;;----====&=&=&&&##$$$$++++OOOooOXXX.X...X",
":::::;:;---====*=&&&&&###$$+++++OOOoOooXXX.....o",
"::::::;-----===*=&&&&###$$$+@+++OOOOooXXXX.... X",
";:::;;;----===**&&&&&&$$$@@@+++OOOoooooXXX.... X",
";:;:;;;---====**&&&&&#$$@@@++++OOOooooX.....   X",
";::;;;----==*****&&###$$$@+@++OOOoooXoXXX....  X",
";:;;;----====***&&&&##$$@@@++OOO+oooo.XX...    X",
";:;;----====***&&&###$@@@@+++OOOoooooX......   X",
";;;;;---===****&&&##$$@@++++OOOOooooXXX...     .",
"-;-;--====&=**&&###$$@@@@+OOOOOoooo.X....      .",
"----=-====***&*&&&&&##$$@@@@+++++OOOooooooXX.X.o"
};
